<svg width="95" height="34" xmlns="http://www.w3.org/2000/svg">
  <defs/>
  <g stroke="#000" fill="none" fill-rule="evenodd">
    <path d="M53.736 27.143c1.173 0 2.174-1.001 2.174-2.202 0-1.23-1.001-2.202-2.174-2.202-1.23 0-2.23.972-2.23 2.202 0 1.201 1 2.202 2.23 2.202zM66.403 27V6.98h-3.518V27h3.518zm13.267 0c6.178 0 10.325-3.89 10.325-10.124 0-6.12-4.033-9.896-10.325-9.896h-6.377V27h6.377zm-.171-3.032H76.81V10.012H79.5c4.29 0 6.978 2.488 6.978 6.864 0 4.49-2.831 7.092-6.978 7.092z" fill="#000" fill-rule="nonzero" stroke-width="3"/>
    <path stroke-width="6" d="M0 24.5h44.925"/>
  </g>
</svg>
