<svg width="21" height="15" viewBox="0 0 21 15" fill="none" xmlns="http://www.w3.org/2000/svg">
  <g opacity="0.504092">
    <path fill-rule="evenodd" clip-rule="evenodd" d="M11.2001 6.81793V2.72727C11.2001 1.22106 9.94652 0 8.40016 0H4.19995C2.65359 0 1.39998 1.22106 1.39998 2.72727V6.81818C0.626932 6.81818 0 7.42884 0 8.18182V13.6364C0 14.3901 0.626932 15 1.39998 15H11.1999C11.9737 15 12.5998 14.3901 12.5998 13.6364V8.18182C12.5998 7.42858 11.9737 6.81793 11.2001 6.81793ZM8.3999 6.81793H4.19995V4.09066C4.19995 3.33767 4.82688 2.72702 5.59993 2.72702H6.99991C7.77296 2.72702 8.3999 3.33767 8.3999 4.09066V6.81793ZM21 9.5452H14.0001V6.81793H21V9.5452ZM12.5998 1.36338V4.09066H20.9997V1.36338H12.5998ZM21 14.9997H14.0001V12.2725H21V14.9997Z" fill="black"/>
  </g>
</svg>

