<svg width="290px" height="289px" viewBox="0 0 290 289" version="1.1" xmlns="http://www.w3.org/2000/svg" xmlns:xlink="http://www.w3.org/1999/xlink">
<g id="Page-1" stroke="none" stroke-width="1" fill="none" fill-rule="evenodd">
    <g id="ThreeBoxLogoBlack" fill="#1168df" fill-rule="nonzero">
        <path d="M42,0 L248,0 C271.195959,0 290,18.8040405 290,42 L290,247 C290,270.195959 271.195959,289 248,289 L42,289 C18.8040405,289 2.84068575e-15,270.195959 0,247 L0,42 C-2.84068575e-15,18.8040405 18.8040405,0 42,0 Z M146.4375,47.823 C137.893457,47.823 129.905787,49.0022382 122.47425,51.36075 C115.042713,53.7192618 108.456779,57.2347266 102.71625,61.90725 C96.9757213,66.5797734 92.1920191,72.4092151 88.365,79.39575 C84.5379809,86.382285 81.9570067,94.503454 80.622,103.7595 L97.977,106.83 C99.579008,107.097001 101.091993,107.2305 102.516,107.2305 C105.542015,107.2305 107.989491,106.496257 109.8585,105.02775 C111.727509,103.559243 113.195995,101.134017 114.264,97.752 C116.31101,91.254968 119.915474,85.937271 125.0775,81.79875 C130.239526,77.6602293 136.736461,75.591 144.5685,75.591 C153.201543,75.591 160.009975,77.9272266 164.994,82.59975 C169.978025,87.272273 172.47,94.191954 172.47,103.359 C172.47,107.631021 171.847006,111.546982 170.601,115.107 C169.354994,118.667018 167.152266,121.715237 163.99275,124.25175 C160.833234,126.788263 156.583527,128.768493 151.2435,130.1925 C145.903473,131.616507 139.18404,132.373 131.085,132.462 L131.085,155.958 C140.875049,155.958 148.684721,156.714492 154.51425,158.2275 C160.343779,159.740508 164.815984,161.831987 167.931,164.502 C171.046016,167.172013 173.092995,170.398231 174.072,174.18075 C175.051005,177.963269 175.5405,182.168477 175.5405,186.7965 C175.5405,190.445518 174.850757,194.072232 173.47125,197.67675 C172.091743,201.281268 170.000264,204.551985 167.19675,207.489 C164.393236,210.426015 160.900021,212.806741 156.717,214.63125 C152.533979,216.455759 147.639028,217.368 142.032,217.368 C137.047975,217.368 132.753768,216.633757 129.14925,215.16525 C125.544732,213.696743 122.407513,211.783262 119.7375,209.42475 C117.067487,207.066238 114.77576,204.374015 112.86225,201.348 C110.94874,198.321985 109.191008,195.251516 107.589,192.1365 C106.609995,190.267491 105.208259,188.843505 103.38375,187.8645 C101.559241,186.885495 99.4900116,186.396 97.176,186.396 C94.5949871,186.396 92.0585125,186.929995 89.5665,187.998 L75.015,194.0055 C77.6850133,202.282541 80.8889813,209.580468 84.627,215.8995 C88.3650187,222.218532 92.9039733,227.558478 98.244,231.9195 C103.584027,236.280522 109.858464,239.573489 117.0675,241.7985 C124.276536,244.023511 132.731451,245.136 142.4325,245.136 C151.332544,245.136 159.76521,243.845513 167.73075,241.2645 C175.69629,238.683487 182.70497,234.878775 188.757,229.85025 C194.80903,224.821725 199.614982,218.614037 203.175,211.227 C206.735018,203.839963 208.515,195.340548 208.515,185.7285 C208.515,174.425443 205.667028,165.036037 199.971,157.56 C194.274972,150.083963 185.642058,144.521518 174.072,140.8725 C178.878024,139.270492 183.172231,137.268012 186.95475,134.865 C190.737269,132.461988 193.941237,129.525017 196.56675,126.054 C199.192263,122.582983 201.194743,118.511273 202.57425,113.83875 C203.953757,109.166227 204.6435,103.759531 204.6435,97.6185 C204.6435,90.587465 203.286264,84.04603 200.57175,77.994 C197.857236,71.9419697 193.963525,66.6687725 188.8905,62.17425 C183.817475,57.6797275 177.698786,54.1642627 170.53425,51.62775 C163.369714,49.0912373 155.337544,47.823 146.4375,47.823 Z" id="Combined-Shape"></path>
    </g>
</g>
</svg>
