<?xml version="1.0" encoding="UTF-8"?>
<svg width="334px" height="334px" viewBox="0 0 334 334" version="1.1" xmlns="http://www.w3.org/2000/svg" xmlns:xlink="http://www.w3.org/1999/xlink">
    <!-- Generator: Sketch 63.1 (92452) - https://sketch.com -->
    <title>Group 21</title>
    <desc>Created with Sketch.</desc>
    <g id="Page-1" stroke="none" stroke-width="1" fill="none" fill-rule="evenodd">
        <g id="Group-21" transform="translate(-1.000000, 0.000000)">
            <g id="Group-20" transform="translate(82.440000, 0.006081)">
                <path d="M90.1298349,1.0383379 C92.239722,2.05787645 93.9434622,3.76007942 94.964905,5.86904523 C114.256206,45.6996598 134.280016,75.9931266 155.036335,96.7494457 C175.611517,117.324627 205.676358,137.298274 245.23086,156.670385 L246.45722,157.269333 C251.621097,159.78432 253.768446,166.009269 251.253459,171.173145 C250.229728,173.275114 248.527588,174.970815 246.421755,175.986574 C207.064352,194.970807 176.916595,214.79275 155.978483,235.452402 C135.09375,256.059384 114.889173,286.458127 95.3647529,326.648631 L94.7733094,327.869521 C93.0098668,331.519957 89.3933836,333.673541 85.5996203,333.746194 L85.5999601,8.37791797e-06 C87.1217765,-0.0018226949 88.6676404,0.331777002 90.1298349,1.0383379 Z" id="Combined-Shape" fill="#FF3600"></path>
                <path d="M87.3660641,82.2599875 C88.1999526,82.6550377 88.8716147,83.326242 89.2672335,84.1598609 C99.2411219,105.176109 109.608822,121.064989 120.370335,131.826501 C130.972776,142.428942 146.61492,152.711924 167.296769,162.675446 L168.301438,163.157299 C170.29497,164.109211 171.13937,166.496965 170.187458,168.490497 C169.790665,169.321477 169.11931,169.990102 168.286722,170.383507 C147.516485,180.197613 131.701381,190.462437 120.841409,201.17798 C110.089207,211.787186 99.6975628,227.587115 89.6664773,248.577766 L89.189073,249.581241 C88.5178033,250.998558 87.1211221,251.83907 85.6529886,251.869182 L85.6520178,81.8739193 C86.2272437,81.8733042 86.811643,81.9973334 87.3660641,82.2599875 Z M0.852,165.039917 L0.851724806,168.729395 C0.280904139,167.629411 0.227679769,166.280511 0.826467995,165.088438 L0.852,165.039917 Z" id="Combined-Shape" fill="#FFB08A"></path>
            </g>
            <g id="Group-20" transform="translate(127.300000, 167.000000) scale(-1, 1) translate(-127.300000, -167.000000) translate(0.800000, 0.000000)">
                <path d="M90.1298349,1.0383379 C92.239722,2.05787645 93.9434622,3.76007942 94.964905,5.86904523 C114.256206,45.6996598 134.280016,75.9931266 155.036335,96.7494457 C175.611517,117.324627 205.676358,137.298274 245.23086,156.670385 L246.45722,157.269333 C251.621097,159.78432 253.768446,166.009269 251.253459,171.173145 C250.229728,173.275114 248.527588,174.970815 246.421755,175.986574 C207.064352,194.970807 176.916595,214.79275 155.978483,235.452402 C135.09375,256.059384 114.889173,286.458127 95.3647529,326.648631 L94.7733094,327.869521 C93.0098668,331.519957 89.3933836,333.673541 85.5996203,333.746194 L85.5999601,8.3779107e-06 C87.1217765,-0.00182269491 88.6676404,0.331777002 90.1298349,1.0383379 Z" id="Combined-Shape" fill="#FFB08A"></path>
                <path d="M87.3632805,82.2599875 C88.197169,82.6550377 88.8688311,83.326242 89.2644499,84.1598609 C99.2383383,105.176109 109.606039,121.064989 120.367551,131.826501 C130.969992,142.428942 146.612137,152.711924 167.293985,162.675446 L168.298655,163.157299 C170.292187,164.109211 171.136587,166.496965 170.184674,168.490497 C169.787881,169.321477 169.116527,169.990102 168.283938,170.383507 C147.513701,180.197613 131.698597,190.462437 120.838625,201.17798 C110.086423,211.787186 99.6947792,227.587115 89.6636937,248.577766 L89.1862894,249.581241 C88.5150198,250.998558 87.1183386,251.83907 85.650205,251.869182 L85.6492342,81.8739193 C86.2244601,81.8733042 86.8088594,81.9973334 87.3632805,82.2599875 Z M0.849216433,165.039917 L0.848941239,168.729395 C0.278120572,167.629411 0.224896202,166.280511 0.823684428,165.088438 L0.849216433,165.039917 Z" id="Combined-Shape" fill="#FF3600"></path>
            </g>
        </g>
    </g>
</svg>